<?xml version="1.0" encoding="utf-8"?>
<!-- Generator: Adobe Illustrator 21.1.0, SVG Export Plug-In . SVG Version: 6.00 Build 0)  -->
<svg version="1.1" id="Layer_1" xmlns="http://www.w3.org/2000/svg" xmlns:xlink="http://www.w3.org/1999/xlink" x="0px" y="0px"
	 viewBox="0 0 64 64" style="enable-background:new 0 0 64 64;" xml:space="preserve">
<style type="text/css">
	.st0{fill:none;}
</style>
<circle class="st0" cx="45" cy="47" r="3.1"/>
<circle class="st0" cx="19" cy="47" r="3.1"/>
<polygon class="st0" points="32,56.1 28,53.1 36,53.1 "/>
<path class="st0" d="M48.5,32.9c2.6-9.8,7-31.3-2.7-32.3c-8.6-0.8-9.6,16-9.3,27c-1.4-0.2-2.9-0.3-4.4-0.3s-3,0.1-4.4,0.3
	c0.3-10.9-0.7-27.8-9.3-27C8.5,1.5,13,23.1,15.5,32.9c-3.9,3.2-6.3,7.6-6.3,12.4c0,10,10.2,18,22.8,18s22.8-8.1,22.8-18
	C54.8,40.5,52.4,36.1,48.5,32.9z"/>
</svg>
