<?xml version="1.0" encoding="utf-8"?>
<!-- Generator: Adobe Illustrator 16.0.0, SVG Export Plug-In . SVG Version: 6.00 Build 0)  -->
<!DOCTYPE svg PUBLIC "-//W3C//DTD SVG 1.1//EN" "http://www.w3.org/Graphics/SVG/1.1/DTD/svg11.dtd">
<svg version="1.1" id="logo" xmlns="http://www.w3.org/2000/svg" xmlns:xlink="http://www.w3.org/1999/xlink" x="0px" y="0px"
	 width="289.3px" height="286.2px" viewBox="0 0 289.3 286.2" enable-background="new 0 0 289.3 286.2" xml:space="preserve">
<path d="M239.763,190.92c-6.07-5.596-14.488-17.357-25.27-35.301c-9.609-16.184-17.382-27.758-23.31-34.722
	c-5.929-6.964-12-12.434-18.226-16.417c28.332-8.429,42.496-25.287,42.496-50.573c0-15.684-6.229-28.592-18.697-38.72
	C184.287,5.065,167.638,0,146.798,0h-8.95h-26.171H63.394v5.969c9.013,0,15.216,2.371,18.612,7.112
	c3.394,4.743,5.093,13.318,5.093,25.728v183.68c0,16.037-3.192,28.504-9.571,37.401c-6.379,8.897-14.605,13.348-24.669,13.348
	c-7.727,0-13.935-3.106-18.616-9.312l-5.093,3.516c7.727,12.292,19.022,18.434,33.892,18.434c15.334,0,27.716-5.029,37.139-15.094
	c9.423-10.07,14.137-24.003,14.137-41.798V110.63h15.273c9.013,0,17.235,2.931,24.673,8.798
	c7.432,5.867,17.705,19.414,30.815,40.643c12.291,20.174,22.771,35.479,31.437,45.912h42.144v-5.973
	C252.125,199.538,245.822,196.508,239.763,190.92z M138.195,102.025h-23.878V38.809c0-12.293,1.727-20.839,5.181-25.64
	c1.666-2.316,3.959-4.068,6.867-5.267h8.142c15.688,0,28.301,4.303,37.842,12.905c9.535,8.605,14.313,19.874,14.313,33.804
	c0,14.285-4.303,25.758-12.908,34.418C165.15,97.695,153.296,102.025,138.195,102.025z"/>
</svg>
